<svg xmlns="http://www.w3.org/2000/svg" width="14.275" height="16.791" viewBox="0 0 14.275 16.791"><defs><style>.a{fill:rgba(147,147,147,0.1);stroke:#707070;stroke-linecap:round;stroke-linejoin:round;}</style></defs><path class="a" d="M21.405,12.755a4.4,4.4,0,0,0-.92-2.576,4.19,4.19,0,0,0-1.962-1.257v-1.1a1.247,1.247,0,0,0-.4-.8,1.455,1.455,0,0,0-.889-.491L16.9,6.5a1.518,1.518,0,0,0-.889.521,1.247,1.247,0,0,0-.4.8v1.1a4.29,4.29,0,0,0-1.993,1.257,4.264,4.264,0,0,0-.859,2.576,13.473,13.473,0,0,1-.337,2.974,4.927,4.927,0,0,1-1.318,2.3l-.613.767a1.073,1.073,0,0,0-.061.675c0,.215.092.368.276.4.031.092.184.153.46.153H22.816c.307,0,.521-.031.613-.153a.4.4,0,0,0,.245-.4,1.042,1.042,0,0,0-.184-.675L23,18a5.521,5.521,0,0,1-1.318-2.3A13.141,13.141,0,0,1,21.405,12.755Zm-6.1,7.819a1.651,1.651,0,0,0,.552,1.257,1.92,1.92,0,0,0,1.318.46,1.781,1.781,0,0,0,1.686-1.717" transform="translate(-9.899 -6)"/></svg>