<svg xmlns="http://www.w3.org/2000/svg" width="16.3" height="16.3" viewBox="0 0 16.3 16.3"><defs><style>.a{fill:none;stroke:#000;stroke-linecap:round;stroke-linejoin:round;stroke-width:1.3px;}</style></defs><g transform="translate(-3.35 -3.35)"><g transform="translate(4 4)"><g transform="translate(-2.4 -7.05)"><path d="M24.305,24.733v1.743h1.789V24.733H24.305M27.821,21.4a2.2,2.2,0,0,0,.386-1.311,2.226,2.226,0,0,0-.894-1.928,3.747,3.747,0,0,0-2.267-.663,3.123,3.123,0,0,0-1.743.463A2.839,2.839,0,0,0,22.1,20.4h1.743a1.788,1.788,0,0,1,.293-.972,1.077,1.077,0,0,1,.987-.463,1.094,1.094,0,0,1,.972.386,1.353,1.353,0,0,1,.278.833,1.167,1.167,0,0,1-.247.725,1.452,1.452,0,0,1-.355.355l-.432.339a2.431,2.431,0,0,0-.8.91,4.909,4.909,0,0,0-.2,1.4h1.635a3.24,3.24,0,0,1,.077-.709,1.408,1.408,0,0,1,.463-.648l.432-.324A4.691,4.691,0,0,0,27.821,21.4Z" transform="translate(-15.1 -7.35)"/></g><path class="a" d="M19,11.5a7.192,7.192,0,0,1-2.206,5.294A7.192,7.192,0,0,1,11.5,19a7.236,7.236,0,0,1-5.307-2.206A7.214,7.214,0,0,1,4,11.5,7.258,7.258,0,0,1,6.193,6.193,7.258,7.258,0,0,1,11.5,4a7.214,7.214,0,0,1,5.294,2.193A7.236,7.236,0,0,1,19,11.5Z" transform="translate(-4 -4)"/></g></g></svg>