<svg xmlns="http://www.w3.org/2000/svg" width="28.519" height="24.645" viewBox="0 0 28.519 24.645"><defs><style>.a{fill:#b9090f;}</style></defs><path class="a" d="M12.587,22.79a1.184,1.184,0,0,0,.122,1.286l7.1,12.43a13.313,13.313,0,0,1-.061-1.561,13.1,13.1,0,0,1,3.919-9.552A13.483,13.483,0,0,1,28.476,22.3H13.75a1.242,1.242,0,0,0-1.163.49m27.983-.245a1.778,1.778,0,0,0-.98-.245H36.681A14.522,14.522,0,0,0,23.027,36.934,14.685,14.685,0,0,0,24.4,43.3l1.623,2.878a1.109,1.109,0,0,0,.857.7h.122l.061.061h.061a1.661,1.661,0,0,0,1.1-.8L40.723,24.168a1.328,1.328,0,0,0,.184-1.133A.843.843,0,0,0,40.569,22.545Z" transform="translate(-12.449 -22.3)"/></svg>